<svg xmlns="http://www.w3.org/2000/svg" viewBox="0 0 500 500">
   <path fill="#f6f6f6" d="M.672 499.328V42.333H114.92v456.995z" />
   <path fill="#e6e6e6" d="M114.92 499.328V42.333h114.25v456.995z" />
   <path fill="#f6f6f6" d="M286.296 156.58V42.333h57.124V156.58zm0 114.249V156.58h57.124v114.249zm0 228.5v-228.5h57.124v228.5zm-57.127-342.748V42.333h57.127V156.58zm0 114.248V156.58h57.127v114.249zm0 228.5v-228.5h57.127v228.5z" />
   <path fill="#e6e6e6" d="M400.544 156.58V42.333h57.124V156.58zm0 114.249V156.58h57.124v114.249zm0 228.5v-228.5h57.124v228.5zM343.42 156.58V42.332h57.124V156.58zm0 114.248V156.58h57.124v114.249zm0 228.5v-228.5h57.124v228.501z" />
   <path fill="#980249" d="M112.904 500h4.032V41.662h-4.032z" />
   <path fill="#a6a6a6" d="M456.996 500h1.344V41.662h-1.344zM0 500h1.344V41.662H0zM0 43.004h458.338v-1.342H0zM0 500h458.338v-1.344H0zm399.871 0h1.344V41.662h-1.344zm-58.467 0h4.032V41.662h-4.032zm-55.781 0h1.344V41.662h-1.344zm-58.469 0h4.03V41.662h-4.03zm0-342.748h231.184v-1.344H227.154zm0 114.248h231.184v-1.344H227.154z" />
   <path fill="#980249" d="M68.977 379.93v11.84H48.399v-2.85h18.185v-8.99zm-8.738-18.12q.582 0 .976.015.393.016.74.047v11.1q2.424 0 3.731-1.354 1.291-1.354 1.291-3.905 0-.693-.047-1.385-.063-.693-.158-1.339-.094-.645-.204-1.228-.126-.598-.268-1.102h2.252q.314 1.118.503 2.535.205 1.401.205 2.913 0 2.03-.551 3.495-.551 1.464-1.59 2.409-1.055.929-2.566 1.385-1.528.441-3.448.441-1.67 0-3.15-.472-1.495-.488-2.613-1.401-1.133-.93-1.794-2.268-.662-1.338-.662-3.038 0-1.653.52-2.929.52-1.275 1.48-2.14.944-.882 2.314-1.323 1.354-.457 3.039-.457zm-.394 2.849q-1.055-.047-1.92.205-.882.251-1.512.787-.63.52-.976 1.307-.362.787-.362 1.826 0 .897.346 1.637t.976 1.275q.63.536 1.512.866.881.331 1.936.41zM49.28 343.373q-.456 2.157-.456 3.716 0 3.7 3.873 3.7h2.771v-6.928h2.283v6.928h11.226v2.786H57.75v5.085h-2.283v-5.085h-2.613q-6.314 0-6.314-6.58 0-1.638.378-3.622zm3.89 16.547zm15.586-33.015q.236.929.33 1.92.111.993.111 2.016 0 2.976-1.338 4.44-1.354 1.464-4.14 1.464h-8.25v4.424h-2.3v-4.424h-4.345l-.708-2.74h5.054v-7.1h2.298v7.1h8.03q1.7 0 2.55-.897.835-.913.835-2.676 0-.756-.11-1.654-.126-.897-.378-1.873zm-14.059-36.258q1.26 0 2.503.472 1.228.472 2.204 1.464.976.992 1.59 2.535.599 1.543.599 3.684v2.55h7.384v2.803H48.399v-5.794q0-1.527.347-2.928.33-1.401 1.086-2.456.756-1.07 1.952-1.7 1.197-.63 2.913-.63zm.126 2.912q-1.984 0-3.039 1.307-1.055 1.291-1.055 3.621v2.865h8.47v-2.613q0-2.488-1.086-3.826-1.086-1.354-3.29-1.354zm14.154-17.349l-2.126.062q1.275 1.291 1.842 2.63.567 1.322.567 2.786 0 1.354-.346 2.315-.347.96-.945 1.59-.614.614-1.433.913-.818.283-1.779.283-2.377 0-3.715-1.763-1.354-1.779-1.354-5.243v-3.274h-1.386q-1.401 0-2.235.897-.85.897-.85 2.74 0 1.338.299 2.644.299 1.291.85 2.677h-2.472q-.189-.52-.362-1.15-.19-.645-.33-1.353-.143-.709-.221-1.48-.095-.772-.095-1.559 0-1.433.315-2.582.315-1.15.96-1.937.646-.802 1.622-1.228.976-.425 2.299-.425h10.895zm-7.195.299v3.479q0 1.023.204 1.763.205.74.583 1.213.378.472.913.708.52.22 1.18.22.457 0 .882-.141.41-.142.74-.457.315-.315.504-.819.19-.503.19-1.228 0-.944-.568-2.156-.582-1.228-1.826-2.582zm-8.612-8.549v-2.504l2.912-.078q-1.684-1.402-2.44-2.756-.756-1.37-.756-2.755 0-2.456 1.59-3.715 1.59-1.276 4.724-1.181v2.77q-2.079-.046-3.007.615-.945.645-.945 1.905 0 .55.205 1.118.188.55.63 1.149.424.582 1.101 1.244.677.66 1.638 1.417h10.155v2.77zm15.586-29.851q.236.929.33 1.92.111.993.111 2.016 0 2.976-1.338 4.44-1.354 1.464-4.14 1.464h-8.25v4.424h-2.3v-4.424h-4.345l-.708-2.74h5.054v-7.1h2.298v7.1h8.03q1.7 0 2.55-.897.835-.913.835-2.676 0-.756-.11-1.653-.126-.898-.378-1.874zm-13.319-10.407v4.676H53.17v-7.447h13.524v-4.707h2.283v12.674h-2.283v-5.196zm-8.896-.96q0-.457.174-.85.157-.394.456-.677.3-.3.693-.457.378-.173.834-.173.441 0 .835.173.393.158.693.457.299.283.472.677.157.393.157.85 0 .456-.157.85-.173.394-.472.693-.3.283-.693.456-.394.158-.835.158-.456 0-.834-.158-.394-.173-.693-.456-.299-.3-.456-.693-.174-.394-.174-.85zm22.215-24.152q.236.93.33 1.921.111.992.111 2.016 0 2.975-1.338 4.44-1.354 1.464-4.14 1.464h-8.25v4.424h-2.3v-4.424h-4.345l-.708-2.74h5.054v-7.1h2.298v7.1h8.03q1.7 0 2.55-.897.835-.913.835-2.677 0-.755-.11-1.653-.126-.897-.378-1.873zm-13.319-10.406v4.676H53.17v-7.447h13.524v-4.707h2.283v12.673h-2.283v-5.195zm-8.896-.96q0-.457.174-.85.157-.394.456-.678.3-.299.693-.456.378-.173.834-.173.441 0 .835.173.393.157.693.456.299.284.472.677.157.394.157.85 0 .457-.157.85-.173.394-.472.693-.3.284-.693.457-.394.157-.835.157-.456 0-.834-.157-.394-.173-.693-.457-.299-.299-.456-.692-.174-.394-.174-.85zm14.406-25.175q1.842 0 3.385.52 1.527.52 2.63 1.495 1.086.976 1.7 2.378.598 1.4.598 3.18 0 1.7-.52 3.054-.535 1.338-1.558 2.283-1.024.929-2.535 1.433-1.511.488-3.48.488-1.841 0-3.353-.52-1.527-.52-2.613-1.495-1.102-.977-1.7-2.378-.615-1.401-.615-3.18 0-1.7.536-3.039.52-1.354 1.542-2.283 1.008-.944 2.52-1.432 1.511-.504 3.463-.504zm.126 2.802q-1.464 0-2.55.331-1.102.315-1.827.913-.74.598-1.102 1.464-.378.85-.378 1.905 0 1.228.488 2.11.473.866 1.276 1.433.803.55 1.873.818 1.055.252 2.22.252 1.464 0 2.566-.315 1.102-.33 1.842-.928.725-.599 1.103-1.449.362-.85.362-1.92 0-1.229-.473-2.095-.488-.881-1.29-1.432-.804-.567-1.858-.819-1.071-.268-2.252-.268zm-7.903-6.801v-2.44l2.55-.11q-.818-.693-1.354-1.339-.55-.645-.881-1.26-.331-.629-.457-1.275-.142-.645-.142-1.338 0-2.44 1.449-3.684 1.432-1.26 4.33-1.26h10.312v2.74H58.885q-1.858 0-2.74.693-.897.693-.897 2.062 0 .504.157.992.142.472.52.992.362.52.992 1.134.63.598 1.574 1.354h10.486v2.739zm130.125 225.742v3.165l-6.581 3.07q-.756.346-1.244.708-.504.362-.787.787-.3.41-.425.913-.126.488-.126 1.102v1.323h9.163v2.802h-20.577v-5.51q0-1.795.393-3.086.394-1.29 1.102-2.11.709-.834 1.716-1.212.992-.393 2.204-.393.96 0 1.827.283.85.283 1.558.85.693.551 1.213 1.386.504.818.755 1.889.3-.866 1.055-1.464.74-.614 1.984-1.244zm-14.925 4.487q-1.653 0-2.472 1.04-.819 1.022-.819 2.896v2.645h6.802v-2.267q0-.992-.22-1.78-.237-.802-.678-1.353-.456-.567-1.102-.866-.661-.315-1.511-.315zm1.385-13.603v4.676h-2.267v-7.447h13.524v-4.707h2.283v12.674h-2.283v-5.196zm-8.895-.96q0-.457.173-.85.157-.394.457-.677.299-.3.692-.457.378-.173.835-.173.44 0 .834.173.394.158.693.457.299.283.472.677.158.393.158.85 0 .456-.158.85-.173.394-.472.693-.3.283-.693.456-.393.158-.834.158-.457 0-.835-.158-.393-.173-.692-.456-.3-.3-.457-.693-.173-.394-.173-.85zm8.864-22.797q.55-.441 1.29-.677.725-.252 1.575-.252 1.228 0 2.251.456 1.008.441 1.732 1.26.724.818 1.134 1.968.393 1.133.393 2.503 0 .992-.204 1.858-.22.866-.536 1.37.441.299.835.503.393.205.882.205.598 0 .991-.567.394-.582.425-1.527l.158-4.156q.031-1.181.299-2.173.268-1.008.771-1.716.504-.724 1.244-1.118.74-.41 1.716-.41 1.055 0 2 .457.944.457 1.653 1.417.724.945 1.15 2.41.424 1.463.424 3.479 0 1.92-.315 3.274-.299 1.339-.85 2.204-.535.866-1.29 1.26-.74.394-1.638.394-1.15 0-2.015-.536-.866-.535-1.67-1.653-.188.41-.471.709-.284.299-.614.488-.347.189-.725.283-.378.095-.74.095-1.023 0-1.873-.473-.85-.488-1.606-1.149-.362.3-.709.535-.346.22-.74.394-.409.157-.865.252-.473.078-1.071.078-1.228 0-2.236-.44-1.023-.457-1.747-1.26-.724-.819-1.118-1.952-.41-1.15-.41-2.535 0-.582.08-1.118.078-.535.204-.944v-5.731h2.236zm15.854 9.509q1.118 0 1.621-1.165.52-1.165.52-3.243 0-1.307-.236-2.189-.236-.897-.63-1.432-.378-.552-.882-.788-.488-.236-1.007-.236-.96 0-1.417.787-.457.788-.535 2.41l-.142 4.124q.346.52.677.866.33.33.661.52.346.189.677.267.346.079.693.079zm-12.926-.834q.756 0 1.385-.252.63-.252 1.071-.709.44-.456.693-1.07.236-.63.236-1.386 0-.819-.268-1.448-.283-.646-.755-1.07-.473-.442-1.087-.662-.614-.236-1.275-.236-.756 0-1.385.252-.63.251-1.071.708-.44.457-.677 1.086-.252.614-.252 1.37 0 .819.283 1.464.284.63.756 1.07.457.426 1.07.662.615.22 1.276.22zm10.643-27.757v2.74h-10.092q-1.826 0-2.724.692-.913.677-.913 1.952 0 .551.158 1.04.141.472.52.991.361.52.991 1.134.63.614 1.574 1.417h10.486v2.74h-22.246v-2.74h6.439l2.488.094q-.772-.645-1.291-1.26-.536-.629-.866-1.243-.331-.63-.473-1.275-.141-.646-.141-1.338 0-2.362 1.448-3.653 1.433-1.291 4.33-1.291zm-.221-17.791q.237.93.331 1.921.11.992.11 2.015 0 2.976-1.338 4.44-1.354 1.464-4.14 1.464h-8.25v4.424h-2.299v-4.424h-4.345l-.709-2.74h5.054v-7.1h2.299v7.1h8.029q1.7 0 2.55-.897.835-.913.835-2.676 0-.756-.11-1.653-.126-.898-.378-1.874zm-14.059-36.258q1.26 0 2.503.472 1.228.473 2.205 1.464.976.992 1.59 2.535.598 1.543.598 3.684v2.55h7.384v2.803h-20.577v-5.794q0-1.527.346-2.928.33-1.401 1.086-2.456.756-1.07 1.953-1.7 1.196-.63 2.912-.63zm.126 2.913q-1.984 0-3.039 1.306-1.054 1.291-1.054 3.621v2.866h8.47v-2.614q0-2.487-1.086-3.825-1.087-1.354-3.29-1.354zm14.154-17.351l-2.126.064q1.276 1.29 1.843 2.629.566 1.322.566 2.787 0 1.354-.346 2.314t-.945 1.59q-.614.614-1.432.913-.82.284-1.78.284-2.377 0-3.715-1.764-1.354-1.779-1.354-5.242v-3.275h-1.386q-1.4 0-2.235.897-.85.898-.85 2.74 0 1.338.299 2.645.299 1.29.85 2.676h-2.472q-.189-.52-.362-1.15-.189-.645-.33-1.353-.142-.709-.221-1.48-.094-.771-.094-1.559 0-1.432.314-2.582.315-1.149.96-1.936.646-.803 1.622-1.228.977-.425 2.299-.425h10.895zm-7.195.3v3.48q0 1.023.205 1.763.204.74.582 1.212t.913.708q.52.22 1.181.22.457 0 .882-.14.41-.143.74-.457.315-.315.503-.82.19-.503.19-1.227 0-.945-.567-2.157-.583-1.228-1.827-2.582zm-8.612-8.55v-2.502l2.913-.08q-1.685-1.4-2.44-2.754-.756-1.37-.756-2.755 0-2.457 1.59-3.716 1.59-1.275 4.723-1.18v2.77q-2.078-.047-3.007.614-.945.646-.945 1.905 0 .551.205 1.118.189.551.63 1.15.425.582 1.102 1.243.677.661 1.637 1.417h10.155v2.77zm15.586-29.85q.237.93.331 1.921.11.992.11 2.015 0 2.976-1.338 4.44-1.354 1.464-4.14 1.464h-8.25v4.424h-2.299v-4.424h-4.345l-.709-2.74h5.054v-7.1h2.299v7.1h8.029q1.7 0 2.55-.897.835-.913.835-2.676 0-.756-.11-1.653-.126-.898-.378-1.874zm-13.319-10.406v4.676h-2.267v-7.447h13.524v-4.708h2.283v12.675h-2.283v-5.195zm-8.895-.96q0-.457.173-.85.157-.395.457-.678.299-.299.692-.456.378-.174.835-.174.44 0 .834.174.394.157.693.456.299.283.472.677.158.394.158.85 0 .457-.158.85-.173.394-.472.693-.3.284-.693.457-.393.157-.834.157-.457 0-.835-.157-.393-.173-.692-.457-.3-.299-.457-.693-.173-.393-.173-.85zm22.214-24.152q.237.929.331 1.92.11.993.11 2.016 0 2.976-1.338 4.44-1.354 1.464-4.14 1.464h-8.25v4.424h-2.299v-4.424h-4.345l-.709-2.74h5.054v-7.1h2.299v7.1h8.029q1.7 0 2.55-.897.835-.913.835-2.676 0-.756-.11-1.653-.126-.898-.378-1.874zm-13.319-10.407v4.676h-2.267v-7.447h13.524v-4.707h2.283v12.673h-2.283v-5.196zm-8.895-.96q0-.457.173-.85.157-.394.457-.677.299-.3.692-.457.378-.173.835-.173.44 0 .834.173.394.158.693.457.299.283.472.677.158.393.158.85 0 .456-.158.85-.173.394-.472.693-.3.283-.693.456-.393.158-.834.158-.457 0-.835-.158-.393-.173-.692-.456-.3-.3-.457-.693-.173-.394-.173-.85zm14.405-25.175q1.843 0 3.385.52 1.528.52 2.63 1.496 1.086.976 1.7 2.377.598 1.401.598 3.18 0 1.7-.52 3.054-.535 1.339-1.558 2.283-1.023.93-2.535 1.433-1.511.488-3.48.488-1.841 0-3.353-.52-1.527-.519-2.613-1.495-1.102-.976-1.7-2.377-.614-1.402-.614-3.18 0-1.701.535-3.04.52-1.353 1.543-2.282 1.007-.945 2.519-1.433 1.511-.504 3.463-.504zm.126 2.803q-1.464 0-2.55.33-1.102.315-1.826.914-.74.598-1.102 1.464-.378.85-.378 1.905 0 1.228.488 2.11.472.865 1.275 1.432.803.551 1.874.819 1.054.252 2.22.252 1.464 0 2.566-.315 1.102-.33 1.842-.93.724-.597 1.102-1.448.362-.85.362-1.92 0-1.228-.472-2.094-.488-.882-1.291-1.433-.803-.567-1.858-.819-1.07-.267-2.252-.267zm-7.903-6.802v-2.44l2.55-.11q-.818-.693-1.354-1.338-.55-.646-.881-1.26-.33-.63-.457-1.275-.141-.646-.141-1.338 0-2.44 1.448-3.685 1.433-1.259 4.33-1.259h10.312v2.74h-10.092q-1.858 0-2.74.692-.897.693-.897 2.063 0 .503.158.991.141.473.52.992.361.52.991 1.134.63.598 1.574 1.354h10.486v2.74z" />
   <path fill="#a6a6a6" d="M268.887 458.215v13.556h-2.456l-5.29-5.322q-1.291-1.307-2.236-2.125-.944-.819-1.716-1.276-.787-.456-1.48-.614-.692-.157-1.495-.157-.756 0-1.433.205-.693.204-1.212.63-.52.424-.819 1.101-.3.677-.3 1.622 0 1.307.583 2.377.583 1.071 1.512 1.968l-1.81 1.512q-1.229-1.165-1.969-2.677-.74-1.527-.74-3.542 0-1.37.41-2.488.409-1.133 1.18-1.952.772-.818 1.89-1.26 1.118-.456 2.519-.456 1.18 0 2.188.315 1.008.315 2.015.96.992.63 2.063 1.606 1.07.96 2.346 2.283l3.637 3.731v-9.997zm-10.281-18.231q2.362 0 4.314.472 1.937.472 3.338 1.433 1.385.96 2.157 2.393.755 1.417.755 3.337 0 1.653-.614 3.007-.63 1.354-1.92 2.315-1.291.96-3.29 1.48-2 .52-4.74.52-2.361 0-4.314-.473-1.952-.488-3.337-1.433-1.402-.96-2.157-2.393-.772-1.433-.772-3.338 0-1.653.63-3.007.614-1.354 1.92-2.314 1.292-.96 3.291-1.48 2-.52 4.74-.52zm.095 2.77q-.536 0-1.055.048-.535.031-1.04.078l6.472 8.707q.818-.236 1.511-.598.693-.363 1.196-.866.489-.52.772-1.165.268-.662.268-1.496 0-1.07-.52-1.937-.52-.881-1.543-1.495-1.023-.614-2.535-.945-1.527-.33-3.526-.33zm-.19 9.415h.977q.488-.015.945-.063l-6.44-8.706q-.803.236-1.464.598-.661.362-1.133.866-.489.504-.756 1.15-.268.645-.268 1.448 0 1.07.52 1.952.52.866 1.558 1.48 1.024.614 2.55.945 1.512.33 3.512.33zm10.376-29.472v13.555h-2.456l-5.29-5.321q-1.291-1.307-2.236-2.126-.944-.818-1.716-1.275-.787-.457-1.48-.614-.692-.157-1.495-.157-.756 0-1.433.204-.693.205-1.212.63-.52.425-.819 1.102-.3.677-.3 1.622 0 1.306.583 2.377.583 1.07 1.512 1.968l-1.81 1.511q-1.229-1.165-1.969-2.676-.74-1.527-.74-3.542 0-1.37.41-2.488.409-1.133 1.18-1.952.772-.819 1.89-1.26 1.118-.456 2.519-.456 1.18 0 2.188.315 1.008.314 2.015.96.992.63 2.063 1.606 1.07.96 2.346 2.283l3.637 3.731v-9.997zm-6.25-17.366q1.354 0 2.55.551 1.181.551 2.078 1.653.882 1.102 1.402 2.771.503 1.669.503 3.889 0 1.228-.078 2.204-.079.976-.205 1.826h-2.456q.173-.976.268-2.062.094-1.086.094-2.22 0-1.543-.268-2.63-.283-1.101-.802-1.794-.52-.693-1.26-1.008-.74-.315-1.669-.315-.85 0-1.48.378t-1.055 1.07q-.425.678-.63 1.638-.22.945-.22 2.078v2.346h-2.251v-2.377q0-.929-.236-1.685-.252-.771-.709-1.306-.456-.551-1.118-.835-.677-.299-1.527-.299-1.653 0-2.409 1.008-.755 1.007-.755 2.96 0 1.039.204 2.14.205 1.103.614 2.362h-2.393q-.189-.535-.33-1.133-.158-.614-.252-1.213-.11-.614-.158-1.212-.063-.598-.063-1.15 0-1.636.362-2.88.347-1.244 1.008-2.078.661-.835 1.606-1.26.945-.425 2.125-.425 1.764 0 2.96.913 1.197.898 1.905 2.472.126-.803.504-1.574.378-.788.976-1.402.583-.63 1.386-1.007.803-.394 1.779-.394zm-1.039-16.021v9.414h-2.582v-9.415zm-2.992-20.573q2.362 0 4.314.472 1.937.473 3.338 1.433 1.385.96 2.157 2.393.755 1.417.755 3.338 0 1.653-.614 3.007-.63 1.354-1.92 2.314-1.291.96-3.29 1.48-2 .52-4.74.52-2.361 0-4.314-.473-1.952-.488-3.337-1.432-1.402-.96-2.157-2.393-.772-1.433-.772-3.338 0-1.653.63-3.007.614-1.354 1.92-2.315 1.292-.96 3.291-1.48 2-.519 4.74-.519zm.095 2.771q-.536 0-1.055.047-.535.032-1.04.079l6.472 8.706q.818-.236 1.511-.598t1.196-.866q.489-.52.772-1.165.268-.661.268-1.496 0-1.07-.52-1.936-.52-.882-1.543-1.496t-2.535-.944q-1.527-.331-3.526-.331zm-.19 9.415h.977q.488-.016.945-.063l-6.44-8.707q-.803.237-1.464.599-.661.362-1.133.866-.489.503-.756 1.149-.268.645-.268 1.448 0 1.071.52 1.953.52.866 1.558 1.48 1.024.614 2.55.944 1.512.33 3.512.33zm10.376-29.3v12.927h-2.55v-5.29h-15.02l2.676 4.928-2.33 1.008-3.448-6.55v-2.424h18.121v-4.598zm-7.289-15.717v9.414h-2.582v-9.414zm-2.992-20.573q2.362 0 4.314.473 1.937.472 3.338 1.433 1.385.96 2.157 2.393.755 1.417.755 3.337 0 1.653-.614 3.007-.63 1.354-1.92 2.315-1.291.96-3.29 1.48-2 .52-4.74.52-2.361 0-4.314-.473-1.952-.488-3.337-1.433-1.402-.96-2.157-2.393-.772-1.433-.772-3.338 0-1.653.63-3.007.614-1.354 1.92-2.314 1.292-.96 3.291-1.48 2-.52 4.74-.52zm.095 2.771q-.536 0-1.055.048-.535.031-1.04.078l6.472 8.707q.818-.236 1.511-.599.693-.362 1.196-.865.489-.52.772-1.166.268-.66.268-1.495 0-1.07-.52-1.937-.52-.881-1.543-1.495-1.023-.614-2.535-.945-1.527-.33-3.526-.33zm-.19 9.415h.977q.488-.015.945-.063l-6.44-8.706q-.803.236-1.464.598-.661.362-1.133.866-.489.504-.756 1.15-.268.645-.268 1.448 0 1.07.52 1.952.52.866 1.558 1.48 1.024.614 2.55.945 1.512.33 3.512.33zm10.376-29.299v12.926h-2.55v-5.29h-15.02l2.676 4.927-2.33 1.008-3.448-6.55v-2.424h18.121v-4.597zm-4.959-66.55q0-.536.204-1.008.205-.488.567-.835.362-.362.85-.566.473-.205 1.024-.205.535 0 1.007.205.473.204.835.566.346.347.55.835.205.472.205 1.007 0 .551-.204 1.024-.205.472-.551.834-.362.346-.835.551-.472.205-1.007.205-.551 0-1.024-.205-.488-.205-.85-.55-.362-.363-.567-.835-.204-.473-.204-1.024zm0-17.76q0-.535.204-1.007.205-.489.567-.835.362-.362.85-.567.473-.204 1.024-.204.535 0 1.007.204.473.205.835.567.346.346.55.835.205.472.205 1.007 0 .551-.204 1.024-.205.472-.551.834-.362.346-.835.551-.472.205-1.007.205-.551 0-1.024-.205-.488-.205-.85-.551-.362-.362-.567-.834-.204-.473-.204-1.024zm0-17.759q0-.535.204-1.008.205-.488.567-.834.362-.362.85-.567.473-.205 1.024-.205.535 0 1.007.205.473.205.835.567.346.346.55.834.205.473.205 1.008 0 .551-.204 1.023-.205.473-.551.835-.362.346-.835.55-.472.205-1.007.205-.551 0-1.024-.204-.488-.205-.85-.551-.362-.362-.567-.835-.204-.472-.204-1.023zm0-78.731q0-.535.204-1.007.205-.488.567-.835.362-.362.85-.566.473-.205 1.024-.205.535 0 1.007.205.473.204.835.566.346.347.55.835.205.472.205 1.008 0 .55-.204 1.023-.205.472-.551.834-.362.347-.835.551-.472.205-1.007.205-.551 0-1.024-.205-.488-.204-.85-.55-.362-.363-.567-.835-.204-.472-.204-1.023zm0-17.759q0-.535.204-1.007.205-.488.567-.835.362-.362.85-.566.473-.205 1.024-.205.535 0 1.007.205.473.204.835.566.346.347.55.835.205.472.205 1.007 0 .551-.204 1.024-.205.472-.551.834-.362.347-.835.551-.472.205-1.007.205-.551 0-1.024-.205-.488-.204-.85-.55-.362-.363-.567-.835-.204-.473-.204-1.024zm0-17.759q0-.535.204-1.007.205-.489.567-.835.362-.362.85-.567.473-.204 1.024-.204.535 0 1.007.204.473.205.835.567.346.346.55.835.205.472.205 1.007 0 .551-.204 1.024-.205.472-.551.834-.362.346-.835.551-.472.205-1.007.205-.551 0-1.024-.205-.488-.205-.85-.551-.362-.362-.567-.834-.204-.473-.204-1.024zm62.118 376.313v13.556h-2.456l-5.29-5.322q-1.29-1.307-2.235-2.125-.945-.819-1.717-1.276-.787-.456-1.48-.614-.692-.157-1.495-.157-.756 0-1.433.205-.693.204-1.212.63-.52.424-.819 1.101-.299.677-.299 1.622 0 1.307.583 2.377.582 1.071 1.51 1.968l-1.81 1.512q-1.228-1.165-1.968-2.677-.74-1.527-.74-3.542 0-1.37.41-2.488.41-1.133 1.18-1.952.772-.818 1.89-1.26 1.118-.456 2.519-.456 1.18 0 2.188.315 1.008.315 2.016.96.991.63 2.062 1.606 1.07.96 2.346 2.283l3.637 3.731v-9.997zm-10.281-18.231q2.362 0 4.314.472 1.937.472 3.338 1.433 1.385.96 2.157 2.393.756 1.417.756 3.337 0 1.653-.614 3.007-.63 1.354-1.921 2.315-1.291.96-3.29 1.48-2 .52-4.74.52-2.361 0-4.313-.473-1.953-.488-3.338-1.433-1.401-.96-2.157-2.393-.772-1.433-.772-3.338 0-1.653.63-3.007.614-1.354 1.921-2.314 1.291-.96 3.29-1.48 2-.52 4.74-.52zm.095 2.77q-.535 0-1.055.048-.535.031-1.04.078l6.472 8.707q.818-.236 1.511-.598.693-.363 1.197-.866.488-.52.771-1.165.268-.662.268-1.496 0-1.07-.52-1.937-.52-.881-1.543-1.495-1.023-.614-2.534-.945-1.528-.33-3.527-.33zm-.19 9.415h.977q.488-.015.945-.063l-6.44-8.706q-.803.236-1.464.598-.661.362-1.133.866-.488.504-.756 1.15-.268.645-.268 1.448 0 1.07.52 1.952.52.866 1.559 1.48 1.023.614 2.55.945 1.511.33 3.51.33zm10.376-29.472v13.555h-2.456l-5.29-5.321q-1.29-1.307-2.235-2.126-.945-.818-1.717-1.275-.787-.457-1.48-.614-.692-.157-1.495-.157-.756 0-1.433.204-.693.205-1.212.63-.52.425-.819 1.102-.299.677-.299 1.622 0 1.306.583 2.377.582 1.07 1.51 1.968l-1.81 1.511q-1.228-1.165-1.968-2.676-.74-1.527-.74-3.542 0-1.37.41-2.488.41-1.133 1.18-1.952.772-.819 1.89-1.26 1.118-.456 2.519-.456 1.18 0 2.188.315 1.008.314 2.016.96.991.63 2.062 1.606 1.07.96 2.346 2.283l3.637 3.731v-9.997zm-6.25-17.366q1.354 0 2.55.551 1.181.551 2.079 1.653.881 1.102 1.4 2.771.505 1.669.505 3.889 0 1.228-.08 2.204-.078.976-.204 1.826h-2.456q.173-.976.268-2.062.094-1.086.094-2.22 0-1.543-.267-2.63-.284-1.101-.803-1.794-.52-.693-1.26-1.008-.74-.315-1.669-.315-.85 0-1.48.378t-1.054 1.07q-.426.678-.63 1.638-.22.945-.22 2.078v2.346h-2.252v-2.377q0-.929-.236-1.685-.252-.771-.709-1.306-.456-.551-1.117-.835-.677-.299-1.528-.299-1.653 0-2.408 1.008-.756 1.007-.756 2.96 0 1.039.204 2.14.205 1.103.615 2.362h-2.394q-.189-.535-.33-1.133-.158-.614-.252-1.213-.11-.614-.158-1.212-.063-.598-.063-1.15 0-1.636.363-2.88.346-1.244 1.007-2.078.661-.835 1.606-1.26.945-.425 2.125-.425 1.764 0 2.96.913 1.197.898 1.905 2.472.126-.803.504-1.574.378-.788.976-1.402.583-.63 1.386-1.007.803-.394 1.779-.394zm-1.039-16.021v9.414h-2.582v-9.415zm7.289-19.927v12.925h-2.55v-5.29h-15.02l2.676 4.928-2.33 1.008-3.448-6.55v-2.424h18.122v-4.597zm0-17.933v13.556h-2.456l-5.29-5.322q-1.29-1.307-2.235-2.125-.945-.819-1.717-1.275-.787-.457-1.48-.614-.692-.158-1.495-.158-.756 0-1.433.205-.693.204-1.212.63-.52.425-.819 1.102-.299.677-.299 1.621 0 1.307.583 2.378.582 1.07 1.51 1.968l-1.81 1.511q-1.228-1.165-1.968-2.676-.74-1.528-.74-3.543 0-1.37.41-2.487.41-1.134 1.18-1.953.772-.818 1.89-1.26 1.118-.456 2.519-.456 1.18 0 2.188.315 1.008.315 2.016.96.991.63 2.062 1.606 1.07.96 2.346 2.283l3.637 3.732v-9.998zm-7.289-15.544v9.414h-2.582v-9.414zm1.039-19.706q1.354 0 2.55.55 1.181.551 2.079 1.654.881 1.102 1.4 2.77.505 1.67.505 3.89 0 1.227-.08 2.203-.078.977-.204 1.827h-2.456q.173-.976.268-2.063.094-1.086.094-2.22 0-1.543-.267-2.629-.284-1.102-.803-1.795-.52-.692-1.26-1.007-.74-.315-1.669-.315-.85 0-1.48.378t-1.054 1.07q-.426.677-.63 1.638-.22.944-.22 2.078v2.346h-2.252v-2.378q0-.929-.236-1.684-.252-.772-.709-1.307-.456-.551-1.117-.834-.677-.3-1.528-.3-1.653 0-2.408 1.008-.756 1.008-.756 2.96 0 1.039.204 2.141.205 1.102.615 2.362h-2.394q-.189-.536-.33-1.134-.158-.614-.252-1.212-.11-.614-.158-1.212-.063-.599-.063-1.15 0-1.637.363-2.88.346-1.245 1.007-2.08.661-.834 1.606-1.259.945-.425 2.125-.425 1.764 0 2.96.913 1.197.898 1.905 2.472.126-.803.504-1.574.378-.787.976-1.401.583-.63 1.386-1.008.803-.394 1.779-.394zm6.25-17.98v12.926h-2.55v-5.29h-15.02l2.676 4.927-2.33 1.008-3.448-6.55v-2.424h18.122v-4.597zm-4.959-66.55q0-.536.204-1.008.205-.488.567-.835.362-.362.85-.566.473-.205 1.024-.205.535 0 1.007.205.473.204.835.566.346.347.55.835.206.472.206 1.007 0 .551-.205 1.024-.205.472-.551.834-.362.346-.835.551-.472.205-1.007.205-.551 0-1.024-.205-.488-.205-.85-.55-.362-.363-.567-.835-.204-.473-.204-1.024zm0-17.76q0-.535.204-1.007.205-.489.567-.835.362-.362.85-.567.473-.204 1.024-.204.535 0 1.007.204.473.205.835.567.346.346.55.835.206.472.206 1.007 0 .551-.205 1.024-.205.472-.551.834-.362.346-.835.551-.472.205-1.007.205-.551 0-1.024-.205-.488-.205-.85-.551-.362-.362-.567-.834-.204-.473-.204-1.024zm0-17.759q0-.535.204-1.008.205-.488.567-.834.362-.362.85-.567.473-.205 1.024-.205.535 0 1.007.205.473.205.835.567.346.346.55.834.206.473.206 1.008 0 .551-.205 1.023-.205.473-.551.835-.362.346-.835.55-.472.205-1.007.205-.551 0-1.024-.204-.488-.205-.85-.551-.362-.362-.567-.835-.204-.472-.204-1.023zm0-78.731q0-.535.204-1.007.205-.488.567-.835.362-.362.85-.566.473-.205 1.024-.205.535 0 1.007.205.473.204.835.566.346.347.55.835.206.472.206 1.008 0 .55-.205 1.023-.205.472-.551.834-.362.347-.835.551-.472.205-1.007.205-.551 0-1.024-.205-.488-.204-.85-.55-.362-.363-.567-.835-.204-.472-.204-1.023zm0-17.759q0-.535.204-1.007.205-.488.567-.835.362-.362.85-.566.473-.205 1.024-.205.535 0 1.007.205.473.204.835.566.346.347.55.835.206.472.206 1.007 0 .551-.205 1.024-.205.472-.551.834-.362.347-.835.551-.472.205-1.007.205-.551 0-1.024-.205-.488-.204-.85-.55-.362-.363-.567-.835-.204-.473-.204-1.024zm0-17.759q0-.535.204-1.007.205-.489.567-.835.362-.362.85-.567.473-.204 1.024-.204.535 0 1.007.204.473.205.835.567.346.346.55.835.206.472.206 1.007 0 .551-.205 1.024-.205.472-.551.834-.362.346-.835.551-.472.205-1.007.205-.551 0-1.024-.205-.488-.205-.85-.551-.362-.362-.567-.834-.204-.473-.204-1.024zm62.118 376.313v13.556h-2.456l-5.29-5.322q-1.29-1.307-2.235-2.125-.945-.819-1.716-1.276-.788-.456-1.48-.614-.693-.157-1.496-.157-.756 0-1.433.205-.692.204-1.212.63-.52.424-.819 1.101-.299.677-.299 1.622 0 1.307.583 2.377.582 1.071 1.511 1.968l-1.81 1.512q-1.228-1.165-1.968-2.677-.74-1.527-.74-3.542 0-1.37.409-2.488.41-1.133 1.18-1.952.772-.818 1.89-1.26 1.118-.456 2.519-.456 1.18 0 2.188.315 1.008.315 2.016.96.992.63 2.062 1.606 1.07.96 2.346 2.283l3.637 3.731v-9.997zm-10.28-18.231q2.361 0 4.313.472 1.937.472 3.338 1.433 1.386.96 2.157 2.393.756 1.417.756 3.337 0 1.653-.614 3.007-.63 1.354-1.921 2.315-1.291.96-3.29 1.48-2 .52-4.74.52-2.361 0-4.313-.473-1.953-.488-3.338-1.433-1.401-.96-2.157-2.393-.771-1.433-.771-3.338 0-1.653.63-3.007.613-1.354 1.92-2.314 1.291-.96 3.29-1.48 2-.52 4.74-.52zm.094 2.77q-.535 0-1.055.048-.535.031-1.039.078l6.47 8.707q.82-.236 1.512-.598.693-.363 1.197-.866.488-.52.771-1.165.268-.662.268-1.496 0-1.07-.52-1.937-.52-.881-1.543-1.495-1.023-.614-2.534-.945-1.528-.33-3.527-.33zm-.189 9.415h.976q.488-.015.945-.063l-6.44-8.706q-.802.236-1.464.598-.66.362-1.133.866-.488.504-.756 1.15-.268.645-.268 1.448 0 1.07.52 1.952.52.866 1.559 1.48 1.023.614 2.55.945 1.512.33 3.511.33zm10.375-29.472v13.555h-2.456l-5.29-5.321q-1.29-1.307-2.235-2.126-.945-.818-1.716-1.275-.788-.457-1.48-.614-.693-.157-1.496-.157-.756 0-1.433.204-.692.205-1.212.63-.52.425-.819 1.102-.299.677-.299 1.622 0 1.306.583 2.377.582 1.07 1.511 1.968l-1.81 1.511q-1.228-1.165-1.968-2.676-.74-1.527-.74-3.542 0-1.37.409-2.488.41-1.133 1.18-1.952.772-.819 1.89-1.26 1.118-.456 2.519-.456 1.18 0 2.188.315 1.008.314 2.016.96.992.63 2.062 1.606 1.07.96 2.346 2.283l3.637 3.731v-9.997zm-4.55-18.783v3.511h4.55v2.802h-4.55v9.903h-2.409l-13.618-8.769v-3.936h13.618v-3.51zm-13.382 6.313l10.973 7.164v-7.164zm10.643-20.917v9.414h-2.582v-9.415zm-2.991-20.573q2.361 0 4.313.472 1.937.473 3.338 1.433 1.386.96 2.157 2.393.756 1.417.756 3.338 0 1.653-.614 3.007-.63 1.354-1.921 2.314t-3.29 1.48q-2 .52-4.74.52-2.361 0-4.313-.473-1.953-.488-3.338-1.432-1.401-.96-2.157-2.393-.771-1.433-.771-3.338 0-1.653.63-3.007.613-1.354 1.92-2.315 1.291-.96 3.29-1.48 2-.519 4.74-.519zm.094 2.771q-.535 0-1.055.047-.535.032-1.039.079l6.47 8.706q.82-.236 1.512-.598.693-.362 1.197-.866.488-.52.771-1.165.268-.661.268-1.496 0-1.07-.52-1.936-.52-.882-1.543-1.496t-2.534-.944q-1.528-.331-3.527-.331zm-.189 9.415h.976q.488-.016.945-.063l-6.44-8.707q-.802.237-1.464.599-.66.362-1.133.866-.488.503-.756 1.149-.268.645-.268 1.448 0 1.071.52 1.953.52.866 1.559 1.48 1.023.614 2.55.944 1.512.33 3.511.33zm10.375-29.3v12.927h-2.55v-5.29h-15.02l2.677 4.928-2.33 1.008-3.448-6.55v-2.424h18.12v-4.598zm-7.289-15.717v9.414h-2.582v-9.414zm-2.991-20.573q2.361 0 4.313.473 1.937.472 3.338 1.433 1.386.96 2.157 2.393.756 1.417.756 3.337 0 1.653-.614 3.007-.63 1.354-1.921 2.315-1.291.96-3.29 1.48-2 .52-4.74.52-2.361 0-4.313-.473-1.953-.488-3.338-1.433-1.401-.96-2.157-2.393-.771-1.433-.771-3.338 0-1.653.63-3.007.613-1.354 1.92-2.314 1.291-.96 3.29-1.48 2-.52 4.74-.52zm.094 2.771q-.535 0-1.055.048-.535.031-1.039.078l6.47 8.707q.82-.236 1.512-.599.693-.362 1.197-.865.488-.52.771-1.166.268-.66.268-1.495 0-1.07-.52-1.937-.52-.881-1.543-1.495-1.023-.614-2.534-.945-1.528-.33-3.527-.33zm-.189 9.415h.976q.488-.015.945-.063l-6.44-8.706q-.802.236-1.464.598-.66.362-1.133.866-.488.504-.756 1.15-.268.645-.268 1.448 0 1.07.52 1.952.52.866 1.559 1.48 1.023.614 2.55.945 1.512.33 3.511.33zm10.375-29.299v12.926h-2.55v-5.29h-15.02l2.677 4.927-2.33 1.008-3.448-6.55v-2.424h18.12v-4.597zm-4.959-66.55q0-.536.205-1.008.204-.488.566-.835.363-.362.85-.566.473-.205 1.024-.205.535 0 1.008.205.472.204.834.566.346.347.551.835.205.472.205 1.007 0 .551-.205 1.024-.205.472-.551.834-.362.346-.834.551-.473.205-1.008.205-.551 0-1.023-.205-.488-.205-.85-.55-.363-.363-.567-.835-.205-.473-.205-1.024zm0-17.76q0-.535.205-1.007.204-.489.566-.835.363-.362.85-.567.473-.204 1.024-.204.535 0 1.008.204.472.205.834.567.346.346.551.835.205.472.205 1.007 0 .551-.205 1.024-.205.472-.551.834-.362.346-.834.551-.473.205-1.008.205-.551 0-1.023-.205-.488-.205-.85-.551-.363-.362-.567-.834-.205-.473-.205-1.024zm0-17.759q0-.535.205-1.008.204-.488.566-.834.363-.362.85-.567.473-.205 1.024-.205.535 0 1.008.205.472.205.834.567.346.346.551.834.205.473.205 1.008 0 .551-.205 1.023-.205.473-.551.835-.362.346-.834.55-.473.205-1.008.205-.551 0-1.023-.204-.488-.205-.85-.551-.363-.362-.567-.835-.205-.472-.205-1.023zm0-78.731q0-.535.205-1.007.204-.488.566-.835.363-.362.85-.566.473-.205 1.024-.205.535 0 1.008.205.472.204.834.566.346.347.551.835.205.472.205 1.008 0 .55-.205 1.023-.205.472-.551.834-.362.347-.834.551-.473.205-1.008.205-.551 0-1.023-.205-.488-.204-.85-.55-.363-.363-.567-.835-.205-.472-.205-1.023zm0-17.759q0-.535.205-1.007.204-.488.566-.835.363-.362.85-.566.473-.205 1.024-.205.535 0 1.008.205.472.204.834.566.346.347.551.835.205.472.205 1.007 0 .551-.205 1.024-.205.472-.551.834-.362.347-.834.551-.473.205-1.008.205-.551 0-1.023-.205-.488-.204-.85-.55-.363-.363-.567-.835-.205-.473-.205-1.024zm0-17.759q0-.535.205-1.007.204-.489.566-.835.363-.362.85-.567.473-.204 1.024-.204.535 0 1.008.204.472.205.834.567.346.346.551.835.205.472.205 1.007 0 .551-.205 1.024-.205.472-.551.834-.362.346-.834.551-.473.205-1.008.205-.551 0-1.023-.205-.488-.205-.85-.551-.363-.362-.567-.834-.205-.473-.205-1.024zm62.118 376.313v13.556h-2.456l-5.29-5.322q-1.29-1.307-2.235-2.125-.945-.819-1.716-1.276-.788-.456-1.48-.614-.693-.157-1.496-.157-.756 0-1.433.205-.692.204-1.212.63-.52.424-.819 1.101-.299.677-.299 1.622 0 1.307.583 2.377.582 1.071 1.511 1.968l-1.81 1.512q-1.228-1.165-1.968-2.677-.74-1.527-.74-3.542 0-1.37.409-2.488.41-1.133 1.18-1.952.772-.818 1.89-1.26 1.118-.456 2.52-.456 1.18 0 2.188.315 1.007.315 2.015.96.992.63 2.062 1.606 1.07.96 2.346 2.283l3.637 3.731v-9.997zm-10.28-18.231q2.361 0 4.313.472 1.937.472 3.338 1.433 1.386.96 2.157 2.393.756 1.417.756 3.337 0 1.653-.614 3.007-.63 1.354-1.92 2.315-1.292.96-3.291 1.48-2 .52-4.74.52-2.361 0-4.313-.473-1.952-.488-3.338-1.433-1.401-.96-2.157-2.393-.771-1.433-.771-3.338 0-1.653.63-3.007.613-1.354 1.92-2.314 1.291-.96 3.29-1.48 2-.52 4.74-.52zm.094 2.77q-.535 0-1.055.048-.535.031-1.039.078l6.47 8.707q.82-.236 1.512-.598.693-.363 1.197-.866.488-.52.771-1.165.268-.662.268-1.496 0-1.07-.52-1.937-.52-.881-1.542-1.495-1.024-.614-2.535-.945-1.527-.33-3.527-.33zm-.189 9.415h.976q.488-.015.945-.063l-6.44-8.706q-.802.236-1.464.598-.66.362-1.133.866-.488.504-.756 1.15-.267.645-.267 1.448 0 1.07.52 1.952.519.866 1.558 1.48 1.023.614 2.55.945 1.512.33 3.511.33zm10.375-29.472v13.555h-2.456l-5.29-5.321q-1.29-1.307-2.235-2.126-.945-.818-1.716-1.275-.788-.457-1.48-.614-.693-.157-1.496-.157-.756 0-1.433.204-.692.205-1.212.63-.52.425-.819 1.102-.299.677-.299 1.622 0 1.306.583 2.377.582 1.07 1.511 1.968l-1.81 1.511q-1.228-1.165-1.968-2.676-.74-1.527-.74-3.542 0-1.37.409-2.488.41-1.133 1.18-1.952.772-.819 1.89-1.26 1.118-.456 2.52-.456 1.18 0 2.188.315 1.007.314 2.015.96.992.63 2.062 1.606 1.07.96 2.346 2.283l3.637 3.731v-9.997zm-4.55-18.783v3.511h4.55v2.802h-4.55v9.903h-2.408l-13.619-8.769v-3.936h13.619v-3.51zm-13.382 6.313l10.974 7.164v-7.164zm10.643-20.917v9.414h-2.582v-9.415zm7.289-19.927v12.925h-2.55v-5.29h-15.02l2.677 4.928-2.33 1.008-3.448-6.55v-2.424h18.12v-4.597zm0-17.933v13.556h-2.456l-5.29-5.322q-1.29-1.307-2.235-2.125-.945-.819-1.716-1.275-.788-.457-1.48-.614-.693-.158-1.496-.158-.756 0-1.433.205-.692.204-1.212.63-.52.425-.819 1.102-.299.677-.299 1.621 0 1.307.583 2.378.582 1.07 1.511 1.968l-1.81 1.511q-1.228-1.165-1.968-2.676-.74-1.528-.74-3.543 0-1.37.409-2.487.41-1.134 1.18-1.953.772-.818 1.89-1.26 1.118-.456 2.52-.456 1.18 0 2.188.315 1.007.315 2.015.96.992.63 2.062 1.606 1.07.96 2.346 2.283l3.637 3.732v-9.998zm-7.289-15.544v9.414h-2.582v-9.414zm1.039-19.706q1.354 0 2.55.55 1.181.551 2.079 1.654.881 1.102 1.401 2.77.504 1.67.504 3.89 0 1.227-.079 2.203-.079.977-.205 1.827h-2.456q.174-.976.268-2.063.095-1.086.095-2.22 0-1.543-.268-2.629-.284-1.102-.803-1.795-.52-.692-1.26-1.007-.74-.315-1.668-.315-.85 0-1.48.378t-1.055 1.07q-.425.677-.63 1.638-.22.944-.22 2.078v2.346h-2.252v-2.378q0-.929-.236-1.684-.252-.772-.708-1.307-.457-.551-1.118-.834-.677-.3-1.527-.3-1.654 0-2.41 1.008-.755 1.008-.755 2.96 0 1.039.205 2.141.204 1.102.614 2.362h-2.393q-.19-.536-.33-1.134-.158-.614-.253-1.212-.11-.614-.157-1.212-.063-.599-.063-1.15 0-1.637.362-2.88.346-1.245 1.007-2.08.662-.834 1.606-1.259.945-.425 2.126-.425 1.763 0 2.96.913 1.196.898 1.905 2.472.126-.803.503-1.574.378-.787.977-1.401.582-.63 1.385-1.008.803-.394 1.78-.394zm6.25-17.98v12.926h-2.55v-5.29h-15.02l2.677 4.927-2.33 1.008-3.448-6.55v-2.424h18.12v-4.597zm-4.959-66.55q0-.536.205-1.008.204-.488.567-.835.362-.362.85-.566.472-.205 1.023-.205.535 0 1.008.205.472.204.834.566.346.347.551.835.205.472.205 1.007 0 .551-.205 1.024-.205.472-.55.834-.363.346-.835.551-.473.205-1.008.205-.551 0-1.023-.205-.488-.205-.85-.55-.363-.363-.567-.835-.205-.473-.205-1.024zm0-17.76q0-.535.205-1.007.204-.489.567-.835.362-.362.85-.567.472-.204 1.023-.204.535 0 1.008.204.472.205.834.567.346.346.551.835.205.472.205 1.007 0 .551-.205 1.024-.205.472-.55.834-.363.346-.835.551-.473.205-1.008.205-.551 0-1.023-.205-.488-.205-.85-.551-.363-.362-.567-.834-.205-.473-.205-1.024zm0-17.759q0-.535.205-1.008.204-.488.567-.834.362-.362.85-.567.472-.205 1.023-.205.535 0 1.008.205.472.205.834.567.346.346.551.834.205.473.205 1.008 0 .551-.205 1.023-.205.473-.55.835-.363.346-.835.55-.473.205-1.008.205-.551 0-1.023-.204-.488-.205-.85-.551-.363-.362-.567-.835-.205-.472-.205-1.023zm0-78.731q0-.535.205-1.007.204-.488.567-.835.362-.362.85-.566.472-.205 1.023-.205.535 0 1.008.205.472.204.834.566.346.347.551.835.205.472.205 1.008 0 .55-.205 1.023-.205.472-.55.834-.363.347-.835.551-.473.205-1.008.205-.551 0-1.023-.205-.488-.204-.85-.55-.363-.363-.567-.835-.205-.472-.205-1.023zm0-17.759q0-.535.205-1.007.204-.488.567-.835.362-.362.85-.566.472-.205 1.023-.205.535 0 1.008.205.472.204.834.566.346.347.551.835.205.472.205 1.007 0 .551-.205 1.024-.205.472-.55.834-.363.347-.835.551-.473.205-1.008.205-.551 0-1.023-.205-.488-.204-.85-.55-.363-.363-.567-.835-.205-.473-.205-1.024zm0-17.759q0-.535.205-1.007.204-.489.567-.835.362-.362.85-.567.472-.204 1.023-.204.535 0 1.008.204.472.205.834.567.346.346.551.835.205.472.205 1.007 0 .551-.205 1.024-.205.472-.55.834-.363.346-.835.551-.473.205-1.008.205-.551 0-1.023-.205-.488-.205-.85-.551-.363-.362-.567-.834-.205-.473-.205-1.024z" />
   <path fill="#980249" d="M110.673 0v265.47h8.061V0zM94.552 261.44l20.152 24.182 20.152-24.182z" />
   <path fill="#a6a6a6" d="M338.43 0v265.47h8.062V0zm-16.12 261.44l20.152 24.182 20.152-24.182zM225.285 0v265.47h8.06V0zm-16.122 261.44l20.152 24.182 20.153-24.182z" />
</svg>